<svg xmlns="http://www.w3.org/2000/svg" xmlns:xlink="http://www.w3.org/1999/xlink" width="500" zoomAndPan="magnify" viewBox="0 0 375 374.999991" height="500" preserveAspectRatio="xMidYMid meet" version="1.0"><defs><g/><clipPath id="f01ec58c24"><path d="M 195.851562 49.144531 L 214.890625 49.144531 L 214.890625 68.1875 L 195.851562 68.1875 Z M 195.851562 49.144531 " clip-rule="nonzero"/></clipPath><clipPath id="ad63c2877b"><path d="M 205.371094 49.144531 C 200.113281 49.144531 195.851562 53.410156 195.851562 58.667969 C 195.851562 63.925781 200.113281 68.1875 205.371094 68.1875 C 210.628906 68.1875 214.890625 63.925781 214.890625 58.667969 C 214.890625 53.410156 210.628906 49.144531 205.371094 49.144531 Z M 205.371094 49.144531 " clip-rule="nonzero"/></clipPath><clipPath id="550735af56"><path d="M 73.894531 187.5 L 86.300781 187.5 L 86.300781 199.90625 L 73.894531 199.90625 Z M 73.894531 187.5 " clip-rule="nonzero"/></clipPath><clipPath id="07788038fd"><path d="M 80.097656 187.5 C 76.671875 187.5 73.894531 190.277344 73.894531 193.703125 C 73.894531 197.128906 76.671875 199.90625 80.097656 199.90625 C 83.523438 199.90625 86.300781 197.128906 86.300781 193.703125 C 86.300781 190.277344 83.523438 187.5 80.097656 187.5 Z M 80.097656 187.5 " clip-rule="nonzero"/></clipPath><clipPath id="0235d0ff95"><path d="M 87.511719 315.511719 L 103.628906 315.511719 L 103.628906 331.628906 L 87.511719 331.628906 Z M 87.511719 315.511719 " clip-rule="nonzero"/></clipPath><clipPath id="d10f1dae47"><path d="M 95.570312 315.511719 C 91.121094 315.511719 87.511719 319.121094 87.511719 323.570312 C 87.511719 328.019531 91.121094 331.628906 95.570312 331.628906 C 100.019531 331.628906 103.628906 328.019531 103.628906 323.570312 C 103.628906 319.121094 100.019531 315.511719 95.570312 315.511719 Z M 95.570312 315.511719 " clip-rule="nonzero"/></clipPath></defs><rect x="-37.5" width="450" fill="#ffffff" y="-37.499999" height="449.999989" fill-opacity="1"/><rect x="-37.5" width="450" fill="#ffffff" y="-37.499999" height="449.999989" fill-opacity="1"/><g fill="#000000" fill-opacity="1"><g transform="translate(103.629154, 264.733857)"><g><path d="M -22.015625 -121.9375 C -17.753906 -134.40625 -10.632812 -142.984375 -0.65625 -147.671875 C 9.320312 -152.367188 27 -154.71875 52.375 -154.71875 C 57.664062 -154.71875 71.019531 -154.5 92.4375 -154.0625 C 107.988281 -153.625 121.707031 -150.25 133.59375 -143.9375 C 145.476562 -137.632812 154.757812 -128.722656 161.4375 -117.203125 C 168.113281 -105.679688 171.453125 -92.289062 171.453125 -77.03125 C 171.453125 -54 164.148438 -35.398438 149.546875 -21.234375 C 134.953125 -7.078125 115.914062 0 92.4375 0 L 17.828125 0 L 18.046875 -2.203125 L 20.6875 -2.203125 C 24.351562 -2.203125 27.503906 -3.410156 30.140625 -5.828125 C 32.785156 -8.253906 34.332031 -11.226562 34.78125 -14.75 L 34.78125 -147.46875 C 16.4375 -147.019531 3.445312 -144.15625 -4.1875 -138.875 C -8.144531 -136.09375 -11.148438 -133.414062 -13.203125 -130.84375 C -15.253906 -128.28125 -17.382812 -125.015625 -19.59375 -121.046875 Z M 49.078125 -147.46875 L 49.078125 -6.609375 L 92.4375 -6.609375 C 111.070312 -6.609375 126.148438 -13.0625 137.671875 -25.96875 C 149.191406 -38.882812 154.953125 -55.90625 154.953125 -77.03125 C 154.953125 -90.96875 152.34375 -103.253906 147.125 -113.890625 C 141.914062 -124.535156 134.578125 -132.789062 125.109375 -138.65625 C 115.648438 -144.53125 104.757812 -147.46875 92.4375 -147.46875 Z M 49.078125 -147.46875 "/></g></g></g><g clip-path="url(#f01ec58c24)"><g clip-path="url(#ad63c2877b)"><path fill="#ad9551" d="M 195.851562 49.144531 L 214.890625 49.144531 L 214.890625 68.1875 L 195.851562 68.1875 Z M 195.851562 49.144531 " fill-opacity="1" fill-rule="nonzero"/></g></g><g clip-path="url(#550735af56)"><g clip-path="url(#07788038fd)"><path fill="#000000" d="M 73.894531 187.5 L 86.300781 187.5 L 86.300781 199.90625 L 73.894531 199.90625 Z M 73.894531 187.5 " fill-opacity="1" fill-rule="nonzero"/></g></g><g clip-path="url(#0235d0ff95)"><g clip-path="url(#d10f1dae47)"><path fill="#ad9551" d="M 87.511719 315.511719 L 103.628906 315.511719 L 103.628906 331.628906 L 87.511719 331.628906 Z M 87.511719 315.511719 " fill-opacity="1" fill-rule="nonzero"/></g></g><g fill="#ad9551" fill-opacity="1"><g transform="translate(86.302513, 269.783232)"><g><path d="M 35.109375 -78.46875 C 24.878906 -65.09375 19.765625 -50.640625 19.765625 -35.109375 C 19.765625 -16.617188 27.535156 -2.257812 43.078125 7.96875 C 52.117188 14.0625 62.390625 17.109375 73.890625 17.109375 C 85.398438 17.109375 95.382812 14.847656 103.84375 10.328125 C 119.769531 2.066406 128.71875 -11.796875 130.6875 -31.265625 C 130.882812 -32.648438 130.984375 -34.03125 130.984375 -35.40625 C 130.984375 -42.675781 128.96875 -50.539062 124.9375 -59 C 120.90625 -67.457031 114.367188 -75.226562 105.328125 -82.3125 L 52.21875 -124.203125 C 40.613281 -133.242188 34.8125 -144.941406 34.8125 -159.296875 C 34.8125 -173.660156 39.429688 -185.804688 48.671875 -195.734375 C 57.921875 -205.671875 70.410156 -210.640625 86.140625 -210.640625 C 94.003906 -210.640625 102.5625 -209.65625 111.8125 -207.6875 L 123.609375 -207.6875 L 124.203125 -171.40625 L 121.25 -171.40625 C 121.050781 -180.84375 117.65625 -188.265625 111.0625 -193.671875 C 104.476562 -199.085938 96.21875 -201.796875 86.28125 -201.796875 C 76.351562 -201.796875 68.046875 -198.5 61.359375 -191.90625 C 54.671875 -185.320312 51.328125 -176.863281 51.328125 -166.53125 C 51.328125 -156.207031 55.65625 -147.601562 64.3125 -140.71875 L 118.890625 -97.65625 C 140.523438 -80.539062 151.34375 -59.890625 151.34375 -35.703125 C 151.34375 -17.609375 144.164062 -2.066406 129.8125 10.921875 C 117.414062 22.128906 100.894531 27.734375 80.25 27.734375 C 67.65625 27.734375 56.441406 25.375 46.609375 20.65625 C 28.117188 12 17.007812 -2.75 13.28125 -23.59375 C 12.6875 -26.75 12.390625 -30.734375 12.390625 -35.546875 C 12.390625 -40.367188 13.765625 -46.957031 16.515625 -55.3125 C 19.273438 -63.675781 24.585938 -72.085938 32.453125 -80.546875 Z M 35.109375 -78.46875 "/></g></g></g></svg>