<svg xmlns="http://www.w3.org/2000/svg" xmlns:xlink="http://www.w3.org/1999/xlink" width="500" zoomAndPan="magnify" viewBox="0 0 375 374.999991" height="500" preserveAspectRatio="xMidYMid meet" version="1.0"><defs><g/><clipPath id="07f1d9f422"><path d="M 180.589844 73.726562 L 199.628906 73.726562 L 199.628906 92.765625 L 180.589844 92.765625 Z M 180.589844 73.726562 " clip-rule="nonzero"/></clipPath><clipPath id="1ce6078511"><path d="M 190.109375 73.726562 C 184.851562 73.726562 180.589844 77.988281 180.589844 83.246094 C 180.589844 88.503906 184.851562 92.765625 190.109375 92.765625 C 195.367188 92.765625 199.628906 88.503906 199.628906 83.246094 C 199.628906 77.988281 195.367188 73.726562 190.109375 73.726562 Z M 190.109375 73.726562 " clip-rule="nonzero"/></clipPath><clipPath id="bdebb9610b"><path d="M 136.425781 179.367188 L 148.835938 179.367188 L 148.835938 191.773438 L 136.425781 191.773438 Z M 136.425781 179.367188 " clip-rule="nonzero"/></clipPath><clipPath id="732f9ac6dc"><path d="M 142.632812 179.367188 C 139.203125 179.367188 136.425781 182.144531 136.425781 185.570312 C 136.425781 188.996094 139.203125 191.773438 142.632812 191.773438 C 146.058594 191.773438 148.835938 188.996094 148.835938 185.570312 C 148.835938 182.144531 146.058594 179.367188 142.632812 179.367188 Z M 142.632812 179.367188 " clip-rule="nonzero"/></clipPath><clipPath id="5198b90188"><path d="M 129.988281 277.238281 L 146.101562 277.238281 L 146.101562 293.355469 L 129.988281 293.355469 Z M 129.988281 277.238281 " clip-rule="nonzero"/></clipPath><clipPath id="6f73136523"><path d="M 138.042969 277.238281 C 133.59375 277.238281 129.988281 280.847656 129.988281 285.296875 C 129.988281 289.746094 133.59375 293.355469 138.042969 293.355469 C 142.496094 293.355469 146.101562 289.746094 146.101562 285.296875 C 146.101562 280.847656 142.496094 277.238281 138.042969 277.238281 Z M 138.042969 277.238281 " clip-rule="nonzero"/></clipPath></defs><g fill="#000000" fill-opacity="1"><g transform="translate(118.568639, 222.51523)"><g><path d="M -17.078125 -94.59375 C -13.773438 -104.257812 -8.253906 -110.914062 -0.515625 -114.5625 C 7.222656 -118.207031 20.941406 -120.03125 40.640625 -120.03125 C 44.734375 -120.03125 55.085938 -119.859375 71.703125 -119.515625 C 83.773438 -119.171875 94.421875 -116.550781 103.640625 -111.65625 C 112.859375 -106.757812 120.054688 -99.84375 125.234375 -90.90625 C 130.410156 -81.976562 133 -71.59375 133 -59.75 C 133 -41.882812 127.335938 -27.457031 116.015625 -16.46875 C 104.691406 -5.488281 89.921875 0 71.703125 0 L 13.828125 0 L 14 -1.703125 L 16.046875 -1.703125 C 18.890625 -1.703125 21.335938 -2.640625 23.390625 -4.515625 C 25.441406 -6.398438 26.632812 -8.707031 26.96875 -11.4375 L 26.96875 -114.390625 C 12.75 -114.046875 2.675781 -111.828125 -3.25 -107.734375 C -6.320312 -105.566406 -8.65625 -103.488281 -10.25 -101.5 C -11.84375 -99.507812 -13.492188 -96.976562 -15.203125 -93.90625 Z M 38.078125 -114.390625 L 38.078125 -5.125 L 71.703125 -5.125 C 86.160156 -5.125 97.859375 -10.128906 106.796875 -20.140625 C 115.734375 -30.160156 120.203125 -43.363281 120.203125 -59.75 C 120.203125 -70.570312 118.179688 -80.109375 114.140625 -88.359375 C 110.097656 -96.609375 104.40625 -103.007812 97.0625 -107.5625 C 89.71875 -112.113281 81.265625 -114.390625 71.703125 -114.390625 Z M 38.078125 -114.390625 "/></g></g></g><g clip-path="url(#07f1d9f422)"><g clip-path="url(#1ce6078511)"><path fill="#ad9551" d="M 180.589844 73.726562 L 199.628906 73.726562 L 199.628906 92.765625 L 180.589844 92.765625 Z M 180.589844 73.726562 " fill-opacity="1" fill-rule="nonzero"/></g></g><g clip-path="url(#bdebb9610b)"><g clip-path="url(#732f9ac6dc)"><path fill="#000000" d="M 136.425781 179.367188 L 148.835938 179.367188 L 148.835938 191.773438 L 136.425781 191.773438 Z M 136.425781 179.367188 " fill-opacity="1" fill-rule="nonzero"/></g></g><g clip-path="url(#5198b90188)"><g clip-path="url(#6f73136523)"><path fill="#ad9551" d="M 129.988281 277.238281 L 146.101562 277.238281 L 146.101562 293.355469 L 129.988281 293.355469 Z M 129.988281 277.238281 " fill-opacity="1" fill-rule="nonzero"/></g></g><g fill="#ad9551" fill-opacity="1"><g transform="translate(119.208534, 235.437851)"><g><path d="M 18.75 -41.90625 C 13.289062 -34.769531 10.5625 -27.050781 10.5625 -18.75 C 10.5625 -8.875 14.707031 -1.207031 23 4.25 C 27.832031 7.507812 33.320312 9.140625 39.46875 9.140625 C 45.613281 9.140625 50.945312 7.929688 55.46875 5.515625 C 63.96875 1.097656 68.742188 -6.304688 69.796875 -16.703125 C 69.898438 -17.429688 69.953125 -18.164062 69.953125 -18.90625 C 69.953125 -22.789062 68.875 -26.988281 66.71875 -31.5 C 64.570312 -36.019531 61.082031 -40.171875 56.25 -43.953125 L 27.890625 -66.328125 C 21.691406 -71.160156 18.59375 -77.410156 18.59375 -85.078125 C 18.59375 -92.742188 21.0625 -99.226562 26 -104.53125 C 30.9375 -109.84375 37.609375 -112.5 46.015625 -112.5 C 50.210938 -112.5 54.78125 -111.972656 59.71875 -110.921875 L 66.015625 -110.921875 L 66.328125 -91.546875 L 64.765625 -91.546875 C 64.648438 -96.585938 62.832031 -100.550781 59.3125 -103.4375 C 55.800781 -106.320312 51.390625 -107.765625 46.078125 -107.765625 C 40.773438 -107.765625 36.335938 -106.003906 32.765625 -102.484375 C 29.203125 -98.972656 27.421875 -94.457031 27.421875 -88.9375 C 27.421875 -83.425781 29.726562 -78.832031 34.34375 -75.15625 L 63.5 -52.15625 C 75.050781 -43.007812 80.828125 -31.976562 80.828125 -19.0625 C 80.828125 -9.394531 76.992188 -1.097656 69.328125 5.828125 C 62.710938 11.816406 53.890625 14.8125 42.859375 14.8125 C 36.128906 14.8125 30.140625 13.550781 24.890625 11.03125 C 15.015625 6.40625 9.082031 -1.472656 7.09375 -12.609375 C 6.78125 -14.285156 6.625 -16.410156 6.625 -18.984375 C 6.625 -21.554688 7.359375 -25.070312 8.828125 -29.53125 C 10.296875 -34 13.128906 -38.492188 17.328125 -43.015625 Z M 18.75 -41.90625 "/></g></g></g></svg>